<?xml version="1.0" encoding="UTF-8" standalone="no"?><!DOCTYPE svg PUBLIC "-//W3C//DTD SVG 1.1//EN" "http://www.w3.org/Graphics/SVG/1.1/DTD/svg11.dtd"><svg width="100%" height="100%" viewBox="0 0 974 594" version="1.1" xmlns="http://www.w3.org/2000/svg" xmlns:xlink="http://www.w3.org/1999/xlink" xml:space="preserve" xmlns:serif="http://www.serif.com/" style="fill-rule:evenodd;clip-rule:evenodd;stroke-linejoin:round;stroke-miterlimit:2;"><g><path id="path851" d="M166.114,514.634c12.881,0 23.36,-1.652 31.435,-4.957c8.267,-3.304 14.708,-7.58 19.322,-12.828c4.614,-5.248 7.787,-11.176 9.517,-17.785c1.73,-6.609 2.596,-13.315 2.596,-20.117c0,-7.775 -1.057,-14.772 -3.172,-20.992c-1.923,-6.22 -5.383,-11.468 -10.382,-15.744c-4.807,-4.276 -11.247,-7.58 -19.322,-9.912c-8.075,-2.332 -18.265,-3.498 -30.57,-3.498l-68.06,0l0,105.834l68.637,0Zm-68.637,-276.685l0,104.959l50.757,0c10.767,0 20.476,-0.778 29.128,-2.333c8.652,-1.555 15.958,-4.276 21.918,-8.163c6.152,-3.887 10.767,-9.232 13.843,-16.036c3.268,-6.803 4.903,-15.355 4.903,-25.657c0,-10.107 -1.25,-18.465 -3.749,-25.074c-2.499,-6.803 -6.345,-12.245 -11.536,-16.327c-5.191,-4.082 -11.824,-6.997 -19.899,-8.747c-7.883,-1.749 -17.303,-2.624 -28.262,-2.624l-57.102,0Zm57.102,-73.763c29.031,0 53.737,2.721 74.117,8.163c20.38,5.442 37.01,13.12 49.892,23.033c12.881,9.913 22.206,21.963 27.974,36.152c5.96,14.189 8.94,30.03 8.94,47.523c0,9.524 -1.346,18.757 -4.038,27.698c-2.692,8.746 -6.921,17.007 -12.689,24.782c-5.768,7.58 -13.17,14.578 -22.206,20.991c-9.036,6.414 -19.899,11.954 -32.588,16.619c27.686,6.803 48.161,17.785 61.427,32.945c13.266,15.161 19.899,34.792 19.899,58.894c0,18.076 -3.461,34.889 -10.382,50.439c-6.921,15.55 -17.111,29.155 -30.57,40.818c-13.266,11.468 -29.704,20.506 -49.315,27.114c-19.611,6.414 -42.009,9.621 -67.195,9.621l-167.844,0l0,-424.794l154.578,0Z" style="fill:#00a39d;fill-rule:nonzero;"/><path id="path853" d="M624.74,250.828c-2.884,4.659 -5.96,8.154 -9.229,10.484c-3.076,2.33 -7.114,3.495 -12.112,3.495c-4.422,0 -9.229,-1.359 -14.42,-4.077c-4.999,-2.912 -10.767,-6.115 -17.304,-9.61c-6.345,-3.495 -13.651,-6.601 -21.918,-9.319c-8.267,-2.912 -17.688,-4.368 -28.262,-4.368c-18.265,0 -31.915,3.98 -40.952,11.94c-8.844,7.766 -13.266,18.347 -13.266,31.743c0,8.542 2.692,15.629 8.075,21.259c5.383,5.63 12.401,10.484 21.053,14.561c8.844,4.077 18.842,7.863 29.993,11.358c11.343,3.3 22.879,7.086 34.607,11.357c11.728,4.077 23.167,8.931 34.319,14.561c11.343,5.63 21.341,12.814 29.993,21.55c8.844,8.737 15.958,19.415 21.341,32.034c5.383,12.426 8.075,27.472 8.075,45.139c0,19.609 -3.365,37.956 -10.094,55.041c-6.729,17.085 -16.534,32.034 -29.416,44.848c-12.689,12.62 -28.455,22.618 -47.296,29.996c-18.649,7.183 -39.894,10.775 -63.735,10.775c-13.074,0 -26.436,-1.359 -40.086,-4.077c-13.458,-2.718 -26.532,-6.504 -39.221,-11.357c-12.689,-5.048 -24.609,-10.969 -35.761,-17.765c-11.151,-6.795 -20.86,-14.367 -29.128,-22.715l28.839,-46.013c2.307,-3.3 5.287,-6.018 8.94,-8.154c3.845,-2.33 7.979,-3.495 12.401,-3.495c5.768,0 11.536,1.844 17.303,5.533c5.96,3.689 12.593,7.766 19.899,12.231c7.498,4.465 16.054,8.542 25.667,12.231c9.613,3.689 20.956,5.533 34.03,5.533c17.688,0 31.435,-3.883 41.24,-11.649c9.805,-7.96 14.708,-20.483 14.708,-37.568c0,-9.902 -2.692,-17.959 -8.075,-24.171c-5.383,-6.213 -12.497,-11.358 -21.341,-15.435c-8.652,-4.077 -18.553,-7.669 -29.704,-10.775c-11.151,-3.107 -22.591,-6.504 -34.319,-10.193c-11.728,-3.883 -23.167,-8.543 -34.319,-13.979c-11.151,-5.63 -21.149,-12.911 -29.993,-21.841c-8.652,-9.125 -15.669,-20.386 -21.053,-33.782c-5.383,-13.59 -8.075,-30.287 -8.075,-50.09c0,-15.92 3.172,-31.452 9.517,-46.596c6.345,-15.143 15.669,-28.636 27.974,-40.479c12.305,-11.843 27.397,-21.259 45.277,-28.249c17.88,-7.183 38.356,-10.775 61.427,-10.775c12.881,0 25.378,1.068 37.491,3.203c12.305,1.941 23.937,4.951 34.895,9.028c10.959,3.883 21.149,8.639 30.57,14.27c9.613,5.436 18.169,11.649 25.667,18.638l-24.225,45.722Z" style="fill:#00a39d;fill-rule:nonzero;"/><path id="path915" d="M973.137,146.617c-74.845,-7.29 -101.161,33.921 -115.843,54.304c-18.725,-81.491 -50.389,-75.066 -84.267,-95.594c48.963,-28.42 62.657,-72.603 61.31,-105.327c47.959,35.163 81.4,31.39 122.815,19.988c-20.607,61.494 -7.596,78.851 15.985,126.629Z" style="fill:#f8ad3c;"/><path id="path855" d="M816.604,589.157l-101.366,0l0,-434.409c63.431,8.594 101.466,61.057 101.366,116.585l0,317.824Z" style="fill:#00a39d;fill-rule:nonzero;"/></g></svg>