<?xml version="1.0" encoding="UTF-8" standalone="no"?><!DOCTYPE svg PUBLIC "-//W3C//DTD SVG 1.1//EN" "http://www.w3.org/Graphics/SVG/1.1/DTD/svg11.dtd"><svg width="100%" height="100%" viewBox="0 0 1864 834" version="1.1" xmlns="http://www.w3.org/2000/svg" xmlns:xlink="http://www.w3.org/1999/xlink" xml:space="preserve" xmlns:serif="http://www.serif.com/" style="fill-rule:evenodd;clip-rule:evenodd;stroke-linejoin:round;stroke-miterlimit:2;"><g><path d="M1792.149,0c18.84,-0 36.908,7.484 50.229,20.806c13.322,13.322 20.806,31.39 20.806,50.229c0,157.376 0,533.887 0,691.264c0,18.84 -7.484,36.908 -20.806,50.229c-13.322,13.322 -31.39,20.806 -50.229,20.806c-295.486,-0 -1425.628,-0 -1721.115,-0c-18.84,0 -36.908,-7.484 -50.229,-20.806c-13.322,-13.322 -20.806,-31.39 -20.806,-50.229c-0,-157.376 -0,-533.887 -0,-691.264c-0,-18.84 7.484,-36.908 20.806,-50.229c13.322,-13.322 31.39,-20.806 50.229,-20.806c295.486,0 1425.628,0 1721.115,0Z" style="fill:#ce2029;"/><path id="path1" d="M531.27,705.141l0,-193.835l98.056,0l0,193.835l-98.056,0Zm965.758,-3.161l0,-23.535l74.048,0c49.854,0 74.42,-0.044 75.187,-0.131c4.562,-0.521 8.927,-2.306 12.526,-5.122c1.171,-0.917 3.418,-3.185 4.28,-4.322c1.989,-2.622 3.428,-5.762 4.163,-9.086l0.28,-1.265l0.036,-73.605l0.036,-73.606l23.152,0l0,84.441c0,58.402 -0.041,84.845 -0.134,85.752c-0.558,5.465 -3.113,10.591 -7.193,14.43c-3.112,2.928 -6.904,4.865 -11.273,5.757c-1.014,0.207 -6.078,0.222 -88.092,0.257l-87.017,0.037Zm-1239.239,-93.458c-3.917,-0.446 -6.562,-1.258 -9.422,-2.89c-6.823,-3.893 -11.264,-10.784 -12.029,-18.665c-0.102,-1.052 -0.12,-9.823 -0.063,-31.631c0.19,-73.402 0.46,-172.026 0.575,-209.777c0.069,-22.581 0.13,-52.786 0.136,-67.121c0.006,-14.335 0.058,-28.398 0.114,-31.251c0.091,-4.596 0.134,-5.332 0.376,-6.453c1.516,-7.021 6.083,-12.782 12.595,-15.889c2.301,-1.098 4.439,-1.752 7.275,-2.226c1.242,-0.208 3.832,-0.225 39.95,-0.262l38.621,-0.04l0,292.91l145.882,0l0,93.375l-111.816,-0.019c-61.499,-0.01 -111.986,-0.038 -112.195,-0.062l0,0Zm412.278,0.081l0,-239.383l287.083,0l0,-57.315l-287.083,0l0,-89.579l391.465,0l0,235.587l-164.11,0.063l81.561,74.839c44.858,41.161 81.797,75.05 82.086,75.308l0.526,0.469l-139.556,0.003l-80.533,-75.35l-80.533,-75.35l-0.064,150.708l-90.844,0Zm432.206,0l0,-387.037l95.652,-0l0,387.037l-95.652,0Zm137.152,-1.645l0,-96.538l257.603,0l0,-47.826l-257.603,0l0,-240.269l386.657,0l0,95.779l-257.476,0l0,48.712l257.476,0l0,240.143l-386.657,0Zm-855.682,-142.846l0,-98.056l97.297,0l0,98.056l-97.297,0Zm68.576,-29.733l0,-39.349l-39.855,0l0,19.59c0,10.775 0.038,19.628 0.084,19.674c0.046,0.046 9.014,0.084 19.928,0.084l19.843,0Zm78.951,28.974l0,-144.49l-147.527,0l0.064,-96.475l223.441,0l1.645,0.297c10.197,1.84 17.783,8.928 20.028,18.715l0.341,1.485l0.033,110.234l0.033,110.234l-98.057,0Zm-358.613,-144.722c-0.194,-0.215 -0.209,-6.239 -0.209,-84.125c0,-57.752 0.041,-84.302 0.133,-85.204c0.727,-7.159 4.489,-13.399 10.397,-17.242c3.069,-1.997 7.071,-3.363 10.961,-3.742c0.866,-0.084 30.19,-0.128 86.554,-0.128c82.422,0 85.251,0.008 85.454,0.231c0.192,0.212 0.209,1.196 0.209,11.557c0,10.812 -0.011,11.335 -0.231,11.535c-0.215,0.194 -5.563,0.209 -74.401,0.209c-51.357,0 -74.548,0.041 -75.398,0.134c-4.201,0.458 -8.195,2.006 -11.351,4.4c-1.126,0.854 -2.895,2.605 -3.791,3.754c-2.548,3.264 -4.011,6.963 -4.489,11.351c-0.093,0.849 -0.134,23.744 -0.134,74.166c0,66.138 -0.019,72.956 -0.199,73.136c-0.178,0.178 -1.417,0.199 -11.747,0.199c-11.027,0 -11.558,-0.01 -11.758,-0.231Z" style="fill:#fff;fill-rule:nonzero;"/></g></svg>