<?xml version="1.0" encoding="UTF-8" standalone="no"?><!DOCTYPE svg PUBLIC "-//W3C//DTD SVG 1.1//EN" "http://www.w3.org/Graphics/SVG/1.1/DTD/svg11.dtd"><svg width="100%" height="100%" viewBox="0 0 1169 1166" version="1.1" xmlns="http://www.w3.org/2000/svg" xmlns:xlink="http://www.w3.org/1999/xlink" xml:space="preserve" xmlns:serif="http://www.serif.com/" style="fill-rule:evenodd;clip-rule:evenodd;stroke-linejoin:round;stroke-miterlimit:2;"><g><path d="M1.517,164.909c0.638,-64.684 0.284,-64.316 0.287,-129.167c0.001,-23.698 -9.331,-35.687 14.436,-35.271c94.092,1.647 758.294,-3.741 765.732,3.12c22.04,20.333 169.084,168.023 183.709,182.712c198.188,199.059 201.339,197.701 201.962,207.722c0.738,11.862 0.06,678.546 0,737.549c-0.024,23.673 5.567,33.706 -18.068,33.706c-757.716,0.006 -758.008,0.197 -761.708,-1.886c-6.034,-3.396 -382.689,-381.605 -383.305,-382.42c-3.429,-4.535 -3.045,-5.231 -3.045,-616.067Z" style="fill:#e46455;"/><path d="M182.909,683.518c-16.37,-0.882 -17.042,0.841 -19.493,-2.901c-4.35,-6.641 -1.591,-474.452 -1.348,-515.708c0.045,-7.584 1.902,-11.02 12.519,-10.686c27.994,0.882 154.941,-0.412 183.446,0.878c17.698,0.801 161.548,7.31 168.837,143.295c11.366,212.026 -183.942,196.284 -243.867,197.132c-9.521,0.135 -8.766,8.879 -8.783,11.041c-0.935,114.415 -4.15,116.231 3.521,122.312c3.423,2.714 340.246,1.682 343.585,0.531c10.02,-3.453 1.011,-61.932 7.171,-77.113c16.721,-41.211 71.915,20.001 74.195,22.099c56.75,52.242 78.403,64.925 76.954,82.248c-1.906,22.77 -118.327,115.409 -121.801,116.369c-47.685,13.178 -26.161,-83.23 -34.039,-90.626c-4.529,-4.252 -344.667,-1.56 -345.182,-1.45c-15.872,3.389 -15.968,2.577 -95.715,2.577Z" style="fill:#fefefe;"/><path d="M793.468,764.909c0.003,-13.667 -5.018,-49.888 14.417,-58.384c18.836,-8.234 34.292,9.988 35.053,10.626c105.328,88.417 104.885,94.359 104,106.219c-1.667,22.351 -117.831,115.374 -122.367,116.517c-47.068,11.865 -25.863,-84.369 -33.766,-91.133c-4.499,-3.851 -346.908,-0.724 -428.641,-1.873c-31.942,-0.449 -33.489,-38.275 -11.871,-46.975c16.246,-6.539 414.579,-1.152 436.588,-3.04c9.344,-0.802 5.004,-5.298 6.587,-31.956Z" style="fill:#fefefe;"/><path d="M968.137,1073.175c-0.065,-40.615 0.317,-60.737 -1.514,-62.718c-5.316,-5.751 -358.874,-1.114 -429.621,-2.791c-24.986,-0.593 -36.693,-30.489 -15.597,-45.395c14.161,-10.006 420.943,-1.642 440.902,-4.724c11.045,-1.706 5.228,-7.327 6.08,-63.504c0.487,-32.123 27.837,-36.48 46.653,-19.416c103.162,93.556 106.469,93.227 106.828,106.916c0.299,11.384 0.364,13.852 -99.045,102.242c-3.33,2.961 -47.127,41.904 -54.685,-10.609Z" style="fill:#fefefe;"/><path d="M295.409,246.018c8.303,0.027 128.712,-16.171 118.814,85.437c-9.193,94.378 -137.866,69.804 -138.071,69.561c-7.02,-8.325 -2.603,-9.96 -1.934,-136.106c0.007,-1.271 0.073,-13.836 1.48,-15.823c2.722,-3.844 3.49,-2.042 19.71,-3.069Z" style="fill:#e46455;"/></g></svg>