<?xml version="1.0" encoding="UTF-8" standalone="no"?><!DOCTYPE svg PUBLIC "-//W3C//DTD SVG 1.1//EN" "http://www.w3.org/Graphics/SVG/1.1/DTD/svg11.dtd"><svg width="100%" height="100%" viewBox="0 0 417 417" version="1.1" xmlns="http://www.w3.org/2000/svg" xmlns:xlink="http://www.w3.org/1999/xlink" xml:space="preserve" xmlns:serif="http://www.serif.com/" style="fill-rule:evenodd;clip-rule:evenodd;stroke-linejoin:round;stroke-miterlimit:2;"><path d="M134.681,0.24c187.859,0.006 202.079,-4.778 239.033,28.113c88.149,78.453 32.4,238.039 -92.502,256.864c-18.294,2.755 -2.116,38.232 -53.771,89.27c-46.692,46.14 -121.155,45.668 -122.53,38.791c-0.633,-3.154 6.115,-42.577 10.678,-81.804c4.267,-36.671 11.526,-44.123 -1.049,-44.319c-61.174,-0.962 -114.724,3.472 -114.54,-4.312c1.139,-47.924 30.948,-112.859 83.48,-137.848c3.775,-1.796 16.368,-3.393 4.275,-12.003c-60.249,-42.898 -56.491,-129.894 -45.378,-132.546c1.072,-0.254 3.283,-0.203 92.303,-0.206Zm249.645,155.436c-0.676,1.373 -1.354,2.746 -2.033,4.119c-0.86,-0.203 -1.576,1.288 -2.435,1.086c-3.617,-0.847 -3.079,-25.367 -46.787,-32.268c-7.314,-1.155 -62.81,-0.544 -63.348,-0.429c-13.027,2.77 -11.018,136.934 -38.127,190.505c-25.968,51.317 -88.799,70.796 -92.841,63.399c-1.705,-3.124 33.927,-247.084 33.349,-250.41c-1.466,-8.41 -4.997,-3.414 -20.169,-3.614c-51.146,-0.668 -82.706,-49.811 -86.473,-77.99c-1.906,-14.259 -4.686,-20.283 8.844,-20.362c17.941,-0.103 188.592,-1.098 224.249,-0.308c68.929,1.524 101.231,58.321 85.771,126.274Z" style="fill:#2f80c2;"/></svg>